<svg xmlns="http://www.w3.org/2000/svg" xmlns:xlink="http://www.w3.org/1999/xlink" preserveAspectRatio="xMidYMid" width="99" height="26" viewBox="0 0 99 26">
  <defs>
    <style>
      .cls-1 {
        fill: #f7f7f7;
        fill-rule: evenodd;
      }
    </style>
  </defs>
  <path d="M20.917,26.000 C20.812,22.405 18.821,17.416 16.251,14.228 L77.876,14.228 C81.543,16.686 84.892,19.710 87.160,23.414 L90.955,23.414 C88.639,19.943 85.741,16.786 82.352,14.228 L85.377,14.228 C89.043,16.686 92.391,19.710 94.661,23.414 L98.455,23.414 C96.139,19.943 93.240,16.786 89.851,14.228 L99.000,14.228 L99.000,11.775 L89.866,11.775 C93.219,9.252 96.026,6.122 98.412,2.586 L94.661,2.586 C92.283,6.214 89.048,9.317 85.394,11.775 L82.366,11.775 C85.720,9.252 88.526,6.122 90.912,2.586 L87.160,2.586 C84.783,6.214 81.547,9.317 77.893,11.775 L16.212,11.775 C18.832,8.491 20.598,3.882 20.917,-0.000 C16.440,5.331 6.656,10.423 -0.000,13.001 C6.656,15.695 16.683,20.497 20.917,26.000 Z" class="cls-1"/>
</svg>
